<svg viewBox="0 0 18 20" fill="none" xmlns="http://www.w3.org/2000/svg">
<path d="M17.25 3.6875H0.75C0.600816 3.6875 0.457742 3.74676 0.352252 3.85225C0.246763 3.95774 0.1875 4.10082 0.1875 4.25C0.1875 4.39918 0.246763 4.54226 0.352252 4.64775C0.457742 4.75324 0.600816 4.8125 0.75 4.8125H1.6875V18.5C1.6875 18.8481 1.82578 19.1819 2.07192 19.4281C2.31806 19.6742 2.6519 19.8125 3 19.8125H15C15.3481 19.8125 15.6819 19.6742 15.9281 19.4281C16.1742 19.1819 16.3125 18.8481 16.3125 18.5V4.8125H17.25C17.3992 4.8125 17.5423 4.75324 17.6477 4.64775C17.7532 4.54226 17.8125 4.39918 17.8125 4.25C17.8125 4.10082 17.7532 3.95774 17.6477 3.85225C17.5423 3.74676 17.3992 3.6875 17.25 3.6875ZM15.1875 18.5C15.1875 18.5497 15.1677 18.5974 15.1326 18.6326C15.0974 18.6677 15.0497 18.6875 15 18.6875H3C2.95027 18.6875 2.90258 18.6677 2.86742 18.6326C2.83225 18.5974 2.8125 18.5497 2.8125 18.5V4.8125H15.1875V18.5ZM4.6875 1.25C4.6875 1.10082 4.74676 0.957742 4.85225 0.852252C4.95774 0.746763 5.10082 0.6875 5.25 0.6875H12.75C12.8992 0.6875 13.0423 0.746763 13.1477 0.852252C13.2532 0.957742 13.3125 1.10082 13.3125 1.25C13.3125 1.39918 13.2532 1.54226 13.1477 1.64775C13.0423 1.75324 12.8992 1.8125 12.75 1.8125H5.25C5.10082 1.8125 4.95774 1.75324 4.85225 1.64775C4.74676 1.54226 4.6875 1.39918 4.6875 1.25Z" fill="white"/>
</svg>
