<svg width="24" height="24" viewBox="0 0 24 24" fill="none" xmlns="http://www.w3.org/2000/svg">
<path d="M20.25 4.6875H3.75C3.60082 4.6875 3.45774 4.74676 3.35225 4.85225C3.24676 4.95774 3.1875 5.10082 3.1875 5.25C3.1875 5.39918 3.24676 5.54226 3.35225 5.64775C3.45774 5.75324 3.60082 5.8125 3.75 5.8125H4.6875V19.5C4.6875 19.8481 4.82578 20.1819 5.07192 20.4281C5.31806 20.6742 5.6519 20.8125 6 20.8125H18C18.3481 20.8125 18.6819 20.6742 18.9281 20.4281C19.1742 20.1819 19.3125 19.8481 19.3125 19.5V5.8125H20.25C20.3992 5.8125 20.5423 5.75324 20.6477 5.64775C20.7532 5.54226 20.8125 5.39918 20.8125 5.25C20.8125 5.10082 20.7532 4.95774 20.6477 4.85225C20.5423 4.74676 20.3992 4.6875 20.25 4.6875ZM18.1875 19.5C18.1875 19.5497 18.1677 19.5974 18.1326 19.6326C18.0974 19.6677 18.0497 19.6875 18 19.6875H6C5.95027 19.6875 5.90258 19.6677 5.86742 19.6326C5.83225 19.5974 5.8125 19.5497 5.8125 19.5V5.8125H18.1875V19.5ZM7.6875 2.25C7.6875 2.10082 7.74676 1.95774 7.85225 1.85225C7.95774 1.74676 8.10082 1.6875 8.25 1.6875H15.75C15.8992 1.6875 16.0423 1.74676 16.1477 1.85225C16.2532 1.95774 16.3125 2.10082 16.3125 2.25C16.3125 2.39918 16.2532 2.54226 16.1477 2.64775C16.0423 2.75324 15.8992 2.8125 15.75 2.8125H8.25C8.10082 2.8125 7.95774 2.75324 7.85225 2.64775C7.74676 2.54226 7.6875 2.39918 7.6875 2.25Z" fill="white"/>
<path d="M14.7486 10.9198V13.4083H16.1526C16.2645 13.4083 16.35 13.4355 16.4091 13.4899C16.4697 13.5443 16.5001 13.6127 16.5001 13.6951C16.5001 13.7791 16.4705 13.8475 16.4114 13.9004C16.3524 13.9517 16.2661 13.9773 16.1526 13.9773H14.4804C14.3296 13.9773 14.2207 13.9439 14.1539 13.877C14.0886 13.8102 14.0559 13.7021 14.0559 13.5529V10.9198C14.0559 10.7799 14.087 10.6749 14.1492 10.6049C14.2129 10.535 14.2961 10.5 14.3987 10.5C14.5029 10.5 14.5869 10.535 14.6506 10.6049C14.7159 10.6734 14.7486 10.7783 14.7486 10.9198Z" fill="white"/>
<path d="M11.8612 10.9198V13.4083H13.2652C13.3772 13.4083 13.4627 13.4355 13.5218 13.4899C13.5824 13.5443 13.6127 13.6127 13.6127 13.6951C13.6127 13.7791 13.5832 13.8475 13.5241 13.9004C13.465 13.9517 13.3787 13.9773 13.2652 13.9773H11.593C11.4422 13.9773 11.3334 13.9439 11.2665 13.877C11.2012 13.8102 11.1686 13.7021 11.1686 13.5529V10.9198C11.1686 10.7799 11.1997 10.6749 11.2619 10.6049C11.3256 10.535 11.4088 10.5 11.5114 10.5C11.6156 10.5 11.6995 10.535 11.7633 10.6049C11.8286 10.6734 11.8612 10.7783 11.8612 10.9198Z" fill="white"/>
<path d="M9.9325 13.5902L9.76924 13.1611H8.37924L8.21599 13.5995C8.15224 13.7705 8.09782 13.8864 8.05273 13.947C8.00764 14.0061 7.93379 14.0356 7.83117 14.0356C7.7441 14.0356 7.66714 14.0038 7.60029 13.94C7.53343 13.8763 7.5 13.804 7.5 13.7231C7.5 13.6765 7.50777 13.6283 7.52332 13.5785C7.53887 13.5288 7.56452 13.4596 7.60029 13.371L8.47486 11.1507C8.49974 11.0869 8.52928 11.0108 8.56349 10.9221C8.59925 10.832 8.63656 10.7573 8.67543 10.6982C8.71586 10.6392 8.76795 10.5917 8.83169 10.556C8.89699 10.5187 8.97707 10.5 9.07191 10.5C9.16831 10.5 9.24838 10.5187 9.31213 10.556C9.37743 10.5917 9.42952 10.6384 9.46839 10.6959C9.50881 10.7534 9.54224 10.8156 9.56867 10.8825C9.59666 10.9478 9.63164 11.0356 9.67362 11.146L10.5669 13.3523C10.6368 13.5202 10.6718 13.6423 10.6718 13.7185C10.6718 13.7977 10.6384 13.8708 10.5715 13.9377C10.5062 14.003 10.4269 14.0356 10.3336 14.0356C10.2792 14.0356 10.2326 14.0255 10.1937 14.0053C10.1548 13.9867 10.1222 13.961 10.0958 13.9283C10.0693 13.8941 10.0406 13.8428 10.0095 13.7744C9.97992 13.7045 9.95426 13.643 9.9325 13.5902ZM8.56116 12.641H9.58266L9.06725 11.23L8.56116 12.641Z" fill="white"/>
</svg>
