<svg viewBox="0 0 24 24" fill="none" xmlns="http://www.w3.org/2000/svg">
<path d="M2.4375 12C2.43949 10.2601 3.13153 8.59209 4.3618 7.36181C5.59208 6.13153 7.26013 5.43949 9 5.43751H19.6416L18.3525 4.14751C18.2531 4.04088 18.199 3.89984 18.2016 3.75411C18.2042 3.60839 18.2632 3.46935 18.3663 3.36629C18.4693 3.26323 18.6084 3.2042 18.7541 3.20163C18.8998 3.19905 19.0409 3.25315 19.1475 3.35251L21.3975 5.60251C21.5028 5.70798 21.562 5.85094 21.562 6.00001C21.562 6.14907 21.5028 6.29204 21.3975 6.39751L19.1475 8.64751C19.0409 8.74687 18.8998 8.80096 18.7541 8.79839C18.6084 8.79582 18.4693 8.73678 18.3663 8.63372C18.2632 8.53066 18.2042 8.39162 18.2016 8.2459C18.199 8.10017 18.2531 7.95914 18.3525 7.85251L19.6416 6.56251H9C7.55842 6.56424 6.17638 7.13768 5.15702 8.15703C4.13767 9.17638 3.56424 10.5584 3.5625 12C3.5625 12.1492 3.50324 12.2923 3.39775 12.3978C3.29226 12.5032 3.14918 12.5625 3 12.5625C2.85082 12.5625 2.70774 12.5032 2.60225 12.3978C2.49676 12.2923 2.4375 12.1492 2.4375 12ZM21 11.4375C20.8508 11.4375 20.7077 11.4968 20.6023 11.6023C20.4968 11.7077 20.4375 11.8508 20.4375 12C20.4358 13.4416 19.8623 14.8236 18.843 15.843C17.8236 16.8623 16.4416 17.4358 15 17.4375H4.35844L5.6475 16.1475C5.74686 16.0409 5.80095 15.8998 5.79838 15.7541C5.79581 15.6084 5.73678 15.4694 5.63372 15.3663C5.53066 15.2632 5.39162 15.2042 5.24589 15.2016C5.10017 15.1991 4.95913 15.2531 4.8525 15.3525L2.6025 17.6025C2.49716 17.708 2.43799 17.8509 2.43799 18C2.43799 18.1491 2.49716 18.292 2.6025 18.3975L4.8525 20.6475C4.95913 20.7469 5.10017 20.801 5.24589 20.7984C5.39162 20.7958 5.53066 20.7368 5.63372 20.6337C5.73678 20.5307 5.79581 20.3916 5.79838 20.2459C5.80095 20.1002 5.74686 19.9591 5.6475 19.8525L4.35844 18.5625H15C16.7399 18.5605 18.4079 17.8685 19.6382 16.6382C20.8685 15.4079 21.5605 13.7399 21.5625 12C21.5625 11.8508 21.5032 11.7077 21.3977 11.6023C21.2923 11.4968 21.1492 11.4375 21 11.4375Z" fill="white"/>
<path d="M14.7486 10.486V12.9744H16.1526C16.2645 12.9744 16.35 13.0016 16.4091 13.0561C16.4697 13.1105 16.5001 13.1789 16.5001 13.2613C16.5001 13.3453 16.4705 13.4137 16.4114 13.4665C16.3524 13.5178 16.2661 13.5435 16.1526 13.5435H14.4804C14.3296 13.5435 14.2207 13.5101 14.1539 13.4432C14.0886 13.3763 14.0559 13.2683 14.0559 13.119V10.486C14.0559 10.346 14.087 10.2411 14.1492 10.1711C14.2129 10.1011 14.2961 10.0662 14.3987 10.0662C14.5029 10.0662 14.5869 10.1011 14.6506 10.1711C14.7159 10.2395 14.7486 10.3445 14.7486 10.486Z" fill="white"/>
<path d="M11.8612 10.486V12.9744H13.2652C13.3772 12.9744 13.4627 13.0016 13.5218 13.0561C13.5824 13.1105 13.6127 13.1789 13.6127 13.2613C13.6127 13.3453 13.5832 13.4137 13.5241 13.4665C13.465 13.5178 13.3787 13.5435 13.2652 13.5435H11.593C11.4422 13.5435 11.3334 13.5101 11.2665 13.4432C11.2012 13.3763 11.1686 13.2683 11.1686 13.119V10.486C11.1686 10.346 11.1997 10.2411 11.2619 10.1711C11.3256 10.1011 11.4088 10.0662 11.5114 10.0662C11.6156 10.0662 11.6995 10.1011 11.7633 10.1711C11.8286 10.2395 11.8612 10.3445 11.8612 10.486Z" fill="white"/>
<path d="M9.9325 13.1563L9.76924 12.7272H8.37924L8.21599 13.1657C8.15224 13.3367 8.09782 13.4525 8.05273 13.5132C8.00764 13.5723 7.93379 13.6018 7.83117 13.6018C7.7441 13.6018 7.66714 13.5699 7.60029 13.5062C7.53343 13.4424 7.5 13.3701 7.5 13.2893C7.5 13.2426 7.50777 13.1944 7.52332 13.1447C7.53887 13.0949 7.56452 13.0257 7.60029 12.9371L8.47486 10.7168C8.49974 10.6531 8.52928 10.5769 8.56349 10.4883C8.59925 10.3981 8.63656 10.3235 8.67543 10.2644C8.71586 10.2053 8.76795 10.1579 8.83169 10.1221C8.89699 10.0848 8.97707 10.0662 9.07191 10.0662C9.16831 10.0662 9.24838 10.0848 9.31213 10.1221C9.37743 10.1579 9.42952 10.2045 9.46839 10.2621C9.50881 10.3196 9.54224 10.3818 9.56867 10.4486C9.59666 10.5139 9.63164 10.6018 9.67362 10.7122L10.5669 12.9185C10.6368 13.0864 10.6718 13.2084 10.6718 13.2846C10.6718 13.3639 10.6384 13.437 10.5715 13.5038C10.5062 13.5691 10.4269 13.6018 10.3336 13.6018C10.2792 13.6018 10.2326 13.5917 10.1937 13.5715C10.1548 13.5528 10.1222 13.5272 10.0958 13.4945C10.0693 13.4603 10.0406 13.409 10.0095 13.3406C9.97992 13.2706 9.95426 13.2092 9.9325 13.1563ZM8.56116 12.2071H9.58266L9.06725 10.7961L8.56116 12.2071Z" fill="white"/>
</svg>
