<svg viewBox="0 0 18 20" fill="none" xmlns="http://www.w3.org/2000/svg">
<path d="M0.4375 9.00001C0.439485 7.26013 1.13153 5.59209 2.3618 4.36181C3.59208 3.13153 5.26013 2.43949 7 2.43751H17.6416L16.3525 1.14751C16.2531 1.04088 16.199 0.899841 16.2016 0.754115C16.2042 0.608389 16.2632 0.46935 16.3663 0.36629C16.4693 0.263231 16.6084 0.204197 16.7541 0.201626C16.8998 0.199055 17.0409 0.253147 17.1475 0.352507L19.3975 2.60251C19.5028 2.70798 19.562 2.85094 19.562 3.00001C19.562 3.14907 19.5028 3.29204 19.3975 3.39751L17.1475 5.64751C17.0409 5.74687 16.8998 5.80096 16.7541 5.79839C16.6084 5.79582 16.4693 5.73678 16.3663 5.63372C16.2632 5.53066 16.2042 5.39162 16.2016 5.2459C16.199 5.10017 16.2531 4.95914 16.3525 4.85251L17.6416 3.56251H7C5.55842 3.56424 4.17638 4.13768 3.15702 5.15703C2.13767 6.17639 1.56424 7.55843 1.5625 9.00001C1.5625 9.14919 1.50324 9.29227 1.39775 9.39776C1.29226 9.50324 1.14918 9.56251 1 9.56251C0.850816 9.56251 0.707742 9.50324 0.602252 9.39776C0.496763 9.29227 0.4375 9.14919 0.4375 9.00001ZM19 8.43751C18.8508 8.43751 18.7077 8.49677 18.6023 8.60226C18.4968 8.70775 18.4375 8.85082 18.4375 9.00001C18.4358 10.4416 17.8623 11.8236 16.843 12.843C15.8236 13.8623 14.4416 14.4358 13 14.4375H2.35844L3.6475 13.1475C3.74686 13.0409 3.80095 12.8998 3.79838 12.7541C3.79581 12.6084 3.73678 12.4694 3.63372 12.3663C3.53066 12.2632 3.39162 12.2042 3.24589 12.2016C3.10017 12.1991 2.95913 12.2531 2.8525 12.3525L0.6025 14.6025C0.497162 14.708 0.437995 14.8509 0.437995 15C0.437995 15.1491 0.497162 15.292 0.6025 15.3975L2.8525 17.6475C2.95913 17.7469 3.10017 17.801 3.24589 17.7984C3.39162 17.7958 3.53066 17.7368 3.63372 17.6337C3.73678 17.5307 3.79581 17.3916 3.79838 17.2459C3.80095 17.1002 3.74686 16.9591 3.6475 16.8525L2.35844 15.5625H13C14.7399 15.5605 16.4079 14.8685 17.6382 13.6382C18.8685 12.4079 19.5605 10.7399 19.5625 9.00001C19.5625 8.85082 19.5032 8.70775 19.3977 8.60226C19.2923 8.49677 19.1492 8.43751 19 8.43751Z" fill="white"/>
</svg>
